<svg data-v-0dd9719b="" version="1.0" xmlns="http://www.w3.org/2000/svg" xmlns:xlink="http://www.w3.org/1999/xlink" width="100%" height="100%" viewBox="0 0 340.000000 250.000000" preserveAspectRatio="xMidYMid meet" color-interpolation-filters="sRGB" style="margin: auto;"> <rect data-v-0dd9719b="" x="0" y="0" width="100%" height="100%" fill="#fff" fill-opacity="1" class="background"></rect> <rect data-v-0dd9719b="" x="0" y="0" width="100%" height="100%" fill="url(#watermark)" fill-opacity="1" class="watermarklayer"></rect> <g data-v-0dd9719b="" fill="#0b56a6" class="icon-text-wrapper icon-svg-group iconsvg" transform="translate(56.345001220703125,95.79374885559082)"><g class="iconsvg-imagesvg" transform="translate(0,2.418384552001953)"><g><rect fill="#0b56a6" fill-opacity="0" stroke-width="2" x="0" y="0" width="60" height="53.57573376432035" class="image-rect"></rect> <svg x="0" y="0" width="60" height="53.57573376432035" filtersec="colorsb6596460919" class="image-svg-svg primary" style="overflow: visible;"><svg xmlns="http://www.w3.org/2000/svg" viewBox="0 -0.011434555053710938 424.6799621582031 379.20831298828125"><path d="M212.33 145.28a44.31 44.31 0 1 1-44.29 44.33 44.32 44.32 0 0 1 44.29-44.33z" fill="#da251d" fill-rule="evenodd"></path><path d="M307.2 25.47l-.05-.05c-14-8.06-37.41 1.17-64 22.66-29.28 23.64-60.88 61.71-87.94 108.54l-.07.14c-27 46.79-44.1 93.16-49.95 130.28-5.32 33.74-1.6 58.65 12.38 66.73 14 8.07 37.4-1.18 64-22.67 29.25-23.64 60.89-61.71 87.93-108.54 27-46.84 44.17-93.23 50-130.42 5.32-33.7 1.66-58.58-12.28-66.67zm-78.27 4.88c32.56-26.34 63.78-37 86.55-26.17h.27l2.72 1.56c23 13.28 30.27 46.66 23.47 89.87-6.14 39.06-23.69 87.23-51.25 135.57v.07l-1.57 2.72c-28.43 49.23-62 89.53-93.35 114.85-34 27.51-66.57 37.9-89.56 24.64-23-13.27-30.25-46.66-23.42-89.87 6.26-39.82 24.36-89 52.8-138.31v-.05c28.42-49.26 62-89.52 93.34-114.88z" fill="#0b56a6" fill-rule="evenodd"></path><path d="M401.86 189.61c0-16.17-19.69-31.82-51.49-44.08-35.08-13.48-83.86-21.85-138-21.85s-102.95 8.37-138 21.85c-31.88 12.26-51.58 27.91-51.58 44.08s19.68 31.81 51.5 44c35.07 13.5 83.85 21.85 138 21.85s103-8.35 138-21.85c31.8-12.23 51.49-27.89 51.49-44zm-43.39-65.28c40.91 15.76 66.21 38.72 66.21 65.28s-25.3 49.5-66.21 65.24c-37.65 14.49-89.34 23.45-146.14 23.45s-108.48-9-146.12-23.45C25.3 239.11 0 216.12 0 189.61s25.3-49.52 66.21-65.28c37.64-14.47 89.33-23.45 146.12-23.45s108.46 8.98 146.14 23.45z" fill="#0b56a6" fill-rule="evenodd"></path><path d="M307.1 353.77c14-8.08 17.7-33 12.38-66.73-5.84-37.12-23-83.49-49.93-130.28l-.09-.14c-27.05-46.83-58.66-84.87-87.91-108.54-26.57-21.47-50-30.72-64-22.66l-.82.49c-13.32 8.52-16.79 33.14-11.56 66.23 5.85 37.19 23 83.58 50 130.42 27 46.83 58.68 84.9 88 108.54 26.54 21.49 50 30.74 63.92 22.67zm34.84-70.18c6.8 43.21-.46 76.6-23.42 89.87s-55.58 2.89-89.61-24.64c-31.32-25.32-64.92-65.62-93.36-114.85l-1.57-2.72v-.07c-27.53-48.34-45.09-96.47-51.19-135.57-6.83-43.19.47-76.57 23.44-89.85.38-.22.77-.42 1.16-.63l1.59-.93h.24c22.78-10.8 54-.17 86.58 26.17 31.32 25.32 65 65.62 93.38 114.86v.05c28.39 49.29 46.5 98.49 52.76 138.31z" fill="#0b56a6" fill-rule="evenodd"></path></svg></svg> <!----></g></g> <g transform="translate(67,0)"><g data-gra="path-name" fill-rule="" class="tp-name iconsvg-namesvg" transform="translate(0,0)"><g transform="scale(1)"><g><path d="M20.43 5.32L20.7 5.58Q24.52 3.69 26.98 0.22L26.98 0.22Q28.65 4.22 31.6 5.27L31.6 5.27Q33.27 5.58 34.1 4 34.94 2.42 35.33-0.18L35.33-0.18Q34.01-0.48 33.64-2.09 33.27-3.69 33.27-5.8L33.27-5.8 32.83-5.8Q32.7-3.65 32.41-2.04 32.12-0.44 31.77-0.44L31.77-0.44Q30.54-0.66 29.44-4.13L29.44-4.13Q33.22-13.36 33.35-24.08L33.35-24.08 29.44-24.08Q29.18-17.18 28.04-10.81L28.04-10.81Q27.29-15.16 26.94-19.14 26.59-23.12 26.63-25.66L26.63-25.66 26.63-27.95 34.5-27.95 34.5-30.76 26.63-30.76 26.63-37.09 22.98-37.09 22.98-30.76 15.73-30.76 15.73-32.87 11.78-32.87 11.78-10.9Q11.91-3.12 10.11 3.65L10.11 3.65 10.33 4Q16-3.43 15.73-14.41L15.73-14.41 15.73-18.46 17.84-18.46 17.84-3.52Q17.93-2.86 17.34-2.57 16.74-2.29 14.68-2.72L14.68-2.72 14.46-2.29Q16.79-1.27 16.96 0.53L16.96 0.53Q17.05 2.46 17.71 2.24L17.71 2.24Q18.98 2.33 20.3 1.6 21.62 0.88 21.71-1.14L21.71-1.14 21.71-20.04Q21.88-20.74 22.54-21.97L22.54-21.97 18.94-23.38 18.06-21.97 15.73-21.97 15.73-27.95 22.98-27.95 22.98-25.66Q23.07-20.08 23.69-14.22 24.3-8.35 25.8-3.16L25.8-3.16Q23.86 1.58 20.43 5.32L20.43 5.32ZM31.68-31.46L31.68-31.46Q33.57-31.55 33.53-33.57L33.53-33.57Q33.31-35.55 31.6-36.39 29.88-37.22 27.47-37.09L27.47-37.09 27.2-36.65Q28.52-36.12 29.66-34.28L29.66-34.28Q29.79-32.17 31.68-31.46L31.68-31.46ZM57.39-13.01L57.39 4.61 60.78 4.61 60.78 2.59 64.16 2.59 64.16 4.61 67.76 4.61 67.76-13.36Q68.03-14.15 68.64-14.94L68.64-14.94 64.64-16.35 63.9-14.24 60.78-14.24 60.78-15.03Q63.28-16.96 65.21-19.6L65.21-19.6 69.79-19.6 69.79-22.68 67.1-22.68Q69.74-27.6 70-33.57L70-33.57 66.14-33.57Q66.05-32.34 65.92-31.11L65.92-31.11 63.54-31.11 63.54-37.09 59.37-37.09 59.37-31.11 56.51-31.11 56.51-28.3 59.37-28.3 59.37-22.68 55.37-22.68 55.37-19.6 61.61-19.6Q58.84-15.42 55.37-12.57L55.37-12.57 55.72-12.13Q56.65-12.61 57.39-13.01L57.39-13.01ZM64.16-0.18L60.78-0.18 60.78-5.19 64.16-5.19 64.16-0.18ZM64.16-8L60.78-8 60.78-11.43 64.16-11.43 64.16-8ZM63.54-23.2L63.54-28.3 65.43-28.3Q64.86-25.53 63.54-23.2L63.54-23.2ZM70.58-37.09L70.58 5.58 73.92 5.58 73.92-1.14Q75.72 0.18 76.2 2.59L76.2 2.59Q77.61 2.68 78.77 1.71 79.94 0.75 80.11-1.14L80.11-1.14 80.11-14.06Q79.67-18.63 76.55-21.27L76.55-21.27Q78.4-25.97 79.28-30.76L79.28-30.76Q79.45-32.56 79.98-34.37L79.98-34.37 80.68-35.68 76.73-37.09 75.89-34.98 73.92-34.98 73.92-37.09 70.58-37.09ZM73.92-1.49L73.92-32.52 76.2-32.52Q75.76-26.41 74.49-21.01L74.49-21.01Q76.6-15.91 76.55-11.6L76.55-11.6 76.55-2.37Q76.33-1.67 75.48-1.56 74.62-1.45 73.92-1.49L73.92-1.49ZM109.91 5.49L109.91 5.49Q111.49 5.67 113.33 5.14 115.18 4.61 115.53 2.59L115.53 2.59 115.53-16.79 125.38-16.79 125.38-20.04 115.53-20.04 115.53-24.26 114.04-24.26Q119.58-27.42 123.27-34.1L123.27-34.1 125.38-35.42 119.75-37.88 118.04-35.77 102.52-35.77 102.52-32.96 117.33-32.96 117.33-32.87Q116.1-28.34 112.28-24.26L112.28-24.26 111.01-24.26 111.01-20.04 100.94-20.04 100.94-16.79 111.01-16.79 111.01 0.13Q110.74 1.01 109.91 1.01L109.91 1.01Q107.4 1.01 105.38 0.75L105.38 0.75 105.38 1.01Q108.54 1.67 109.03 3.47L109.03 3.47Q109.42 5.23 109.91 5.49L109.91 5.49ZM145.72-33.93L145.72 0.04 149.11 0.04 149.11-4.13 150.78-4.13 150.78-0.18 154.16-0.18 154.16-30.59 155.3-32.87 151.66-34.28 150.51-31.82 149.11-31.82 149.11-33.93 145.72-33.93ZM150.78-6.94L149.11-6.94 149.11-16.79 150.78-16.79 150.78-6.94ZM154.16 1.45L154.16 4.61 169.94 4.61 169.94 1.45 154.16 1.45ZM164.31-5.19L159.52-5.19 159.52-8.53 164.31-8.53 164.31-5.19ZM150.78-19.6L149.11-19.6 149.11-29 150.78-29 150.78-19.6ZM155.92-18.81L155.92-0.62 159.52-0.62 159.52-2.37 164.31-2.37 164.31-0.62 167.87-0.62 167.87-15.47Q167.92-15.73 168.44-16.3L168.44-16.3Q168.93-16.88 169.28-17.4L169.28-17.4 165.41-19.25 164.31-17.4 159.52-17.4 159.52-18.81 155.92-18.81ZM164.31-11.34L159.52-11.34 159.52-14.59 164.31-14.59 164.31-11.34ZM156.14-23.38L156.14-20.65 167.39-20.65 167.39-23.38 156.14-23.38ZM165.15-24.43L165.41-24.08Q168.75-26.76 169.23-29.97L169.23-29.97 170.42-31.29 166.77-32.87 165.15-30.85 162.6-30.85Q164.27-31.77 163.52-34.28L163.52-34.28Q163.04-36.34 159.52-37.44L159.52-37.44 159.17-37.09Q159.87-36.43 160.27-33.57L160.27-33.57Q160.14-32.08 161.15-30.85L161.15-30.85 157.76-30.85Q157.32-32.26 156.62-33.66L156.62-33.66 156.23-33.66Q156.23-31.16 155.52-29.31L155.52-29.31Q154.78-27.42 154.51-26.63L154.51-26.63Q154.47-24.52 155.87-24.17L155.87-24.17Q158.07-24.13 158.25-28.04L158.25-28.04 165.37-28.04Q165.28-26.24 165.15-24.43L165.15-24.43Z" transform="translate(-10.109999656677246, 37.880001068115234)"></path></g> <!----> <!----> <!----> <!----> <!----> <!----> <!----></g></g> <g data-gra="path-slogan" fill-rule="" class="tp-slogan iconsvg-slogansvg" fill="#0b56a6" transform="translate(5,49.459999084472656)"><rect x="0" height="1" y="3.9750003814697266" width="19.09499740600586"></rect> <rect height="1" y="3.9750003814697266" width="19.09499740600586" x="131.2150001525879"></rect> <g transform="translate(22.09499740600586,0)"><g transform="scale(1)"><path d="M8.06-6.05L8.06-6.05L6.94-6.05Q6.52-7.78 4.55-7.83L4.55-7.83Q1.83-7.69 1.73-4.36L1.73-4.36Q1.73-0.80 4.59-0.80L4.59-0.80Q6.56-0.84 7.03-3.19L7.03-3.19L8.16-3.19Q7.64 0.05 4.36 0.14L4.36 0.14Q0.61 0 0.52-4.31L0.52-4.31Q0.70-8.63 4.55-8.81L4.55-8.81Q7.59-8.72 8.06-6.05ZM10.69-5.06L15.19-5.06L15.19-8.58L16.36-8.58L16.36 0L15.19 0L15.19-3.98L10.69-3.98L10.69 0L9.52 0L9.52-8.58L10.69-8.58L10.69-5.06ZM19.45-1.03L24.61-1.03L24.61 0L18.28 0L18.28-8.58L24.52-8.58L24.52-7.59L19.45-7.59L19.45-4.92L24.14-4.92L24.14-3.89L19.45-3.89L19.45-1.03ZM27.52-8.58L31.83-1.64L31.83-8.58L32.95-8.58L32.95 0L31.64 0L27.28-6.94L27.23-6.94L27.23 0L26.11 0L26.11-8.58L27.52-8.58ZM41.16-3.61L38.53-3.61L38.53-4.59L42.28-4.59L42.28 0L41.53 0L41.25-1.08Q40.27 0.09 38.44 0.14L38.44 0.14Q36.70 0.14 35.77-0.75L35.77-0.75Q34.36-2.06 34.41-4.36L34.41-4.36Q34.73-8.63 38.48-8.81L38.48-8.81Q41.67-8.63 42.14-6L42.14-6L41.02-6Q40.55-7.78 38.44-7.83L38.44-7.83Q35.77-7.64 35.63-4.31L35.63-4.31Q35.63-0.75 38.48-0.75L38.48-0.75Q39.52-0.75 40.27-1.31L40.27-1.31Q41.20-2.06 41.16-3.61L41.16-3.61ZM47.58 0L44.11 0L44.11-8.58L47.63-8.58Q51.09-8.39 51.23-4.41L51.23-4.41Q51.05-0.09 47.58 0L47.58 0ZM47.44-7.64L45.28-7.64L45.28-0.98L47.53-0.98Q49.97-1.13 50.06-4.31L50.06-4.31Q50.02-7.55 47.44-7.64L47.44-7.64ZM58.36-3.19L58.36-8.58L59.53-8.58L59.53-3.05Q59.39 0.05 56.02 0.14L56.02 0.14Q52.88 0.05 52.73-2.86L52.73-2.86L52.73-8.58L53.91-8.58L53.91-3.19Q53.95-0.84 56.06-0.80L56.06-0.80Q58.36-0.84 58.36-3.19L58.36-3.19ZM65.48-1.03L70.78-1.03L70.78 0L64.03 0L64.03-0.94L69.28-7.59L64.41-7.59L64.41-8.58L70.78-8.58L70.78-7.59L65.48-1.03ZM72.09-8.58L73.27-8.58L73.27 0L72.09 0L72.09-8.58ZM81.98-8.58L79.08-4.41L82.13 0L80.67 0L78.33-3.52L75.98 0L74.58 0L77.67-4.41L74.77-8.58L76.22-8.58L78.38-5.30L80.58-8.58L81.98-8.58ZM88.88-3.19L88.88-8.58L90.05-8.58L90.05-3.05Q89.91 0.05 86.53 0.14L86.53 0.14Q83.39 0.05 83.25-2.86L83.25-2.86L83.25-8.58L84.42-8.58L84.42-3.19Q84.47-0.84 86.58-0.80L86.58-0.80Q88.88-0.84 88.88-3.19L88.88-3.19ZM97.50 0L96.66-2.48L93.19-2.48L92.30 0L91.13 0L94.36-8.58L95.67-8.58L98.77 0L97.50 0ZM94.92-7.31L93.56-3.52L96.23-3.52L94.97-7.31L94.92-7.31ZM101.20-8.58L105.52-1.64L105.52-8.58L106.64-8.58L106.64 0L105.33 0L100.97-6.94L100.92-6.94L100.92 0L99.80 0L99.80-8.58L101.20-8.58Z" transform="translate(-0.515625, 8.8125)"></path></g></g></g></g></g><defs v-gra="od"></defs></svg>